# xmcd
#
# Track frame offsets:
# 150
# 18130
# 36423
# 54673
# 77568
# 95522
# 113037
# 127064
# 146088
# 165581
# 182385
# 203046
# 223918
# 242163
# 265058
#
# Disc length: 3776 seconds
#
#
# Revision: 3
# Processed by: cddbd v1.5.2PL0 Copyright (c) Steve Scherf et al.
# Submitted via: FreeRIP 2.951 
#
DISCID=d10ebe0f
DTITLE=Tiziano Ferro - Rojo Relativo
DYEAR=2003
DGENRE=
TTITLE0=Las Cosas Que No Dices
TTITLE1=Rojo Relativo
TTITLE2=Perdona
TTITLE3=Alucinado
TTITLE4=Y Más
TTITLE5=Si No Hubiera Nacido
TTITLE6=Primavera Nunca Fue
TTITLE7=El Confín
TTITLE8=Boom Boom
TTITLE9=La Olimpiada
TTITLE10=Soul-Dier
TTITLE11=Il Bimbo Dentro
TTITLE12=Perdono [Versión en Italiano]
TTITLE13=Imbranato [Version en Italiano]
TTITLE14=Rosso relativo [Version en Italiano]
EXTD=
EXTT0=
EXTT1=
EXTT2=
EXTT3=
EXTT4=
EXTT5=
EXTT6=
EXTT7=
EXTT8=
EXTT9=
EXTT10=
EXTT11=
EXTT12=
EXTT13=
EXTT14=
PLAYORDER=
